<svg width="18" height="14" viewBox="0 0 389 302" fill="none" xmlns="http://www.w3.org/2000/svg">
<path d="M385.851 0C385.851 106.9 299.475 193.558 192.925 193.558C86.3756 193.558 0 106.9 0 0H102.017C102.017 50.3727 142.718 91.2077 192.925 91.2077C243.133 91.2077 283.834 50.3727 283.834 0H385.851Z" fill="url(#paint0_linear_1_103)"/>
<path d="M102.017 0C102.017 52.1099 142.719 94.3522 192.926 94.3522L195.273 94.3253C244.396 93.0323 283.836 51.2949 283.836 0H385.852C385.852 59.7774 360.606 113.43 320.585 150.12C360.608 186.809 385.852 240.465 385.852 300.244H283.836C283.835 248.95 244.395 207.212 195.273 205.919L192.926 205.892C142.719 205.892 102.017 248.135 102.017 300.244H0C0.000306821 240.465 25.2487 186.813 65.2719 150.124C25.2474 113.435 4.98906e-06 59.7802 0 0H102.017ZM75.1353 158.577C39.9668 190.237 16.6552 235.852 13.2959 287.34H89.9058C94.8285 245.055 123.63 210.021 162.327 197.716C129.845 192.343 100.071 178.559 75.1353 158.577ZM310.717 158.586C285.78 178.568 256 192.344 223.516 197.716C262.216 210.02 291.019 245.053 295.942 287.34H372.556C369.198 235.855 345.883 190.246 310.717 158.586ZM192.926 112.914C152.631 112.914 115.323 126.735 85.2382 150.12C115.324 173.506 152.629 187.33 192.926 187.33C233.222 187.33 270.525 173.505 300.609 150.12C270.525 126.736 233.22 112.915 192.926 112.914ZM13.2959 12.9039C16.6549 64.3906 39.9681 110.002 75.1353 141.662C100.073 121.68 129.851 107.895 162.337 102.524C123.635 90.2199 94.828 55.1921 89.9058 12.9039H13.2959ZM295.942 12.9039C291.02 55.1912 262.215 90.2195 223.516 102.524C256.001 107.896 285.783 121.674 310.722 141.658C345.886 109.998 369.198 64.3883 372.556 12.9039H295.942Z" fill="url(#paint1_linear_1_103)"/>
<defs>
<linearGradient id="paint0_linear_1_103" x1="192.925" y1="0" x2="194.51" y2="302" gradientUnits="userSpaceOnUse">
<stop stop-color="#8364FF"/>
<stop offset="1" stop-color="#5834FF"/>
</linearGradient>
<linearGradient id="paint1_linear_1_103" x1="192.926" y1="0" x2="192.926" y2="300.244" gradientUnits="userSpaceOnUse">
<stop stop-color="#8364FF"/>
<stop offset="1" stop-color="#5834FF"/>
</linearGradient>
</defs>
</svg>
